<svg width="12" height="14" viewBox="0 0 12 14" fill="none" xmlns="http://www.w3.org/2000/svg">
<path d="M8.25 0C8.64782 0 9.02936 0.1475 9.31066 0.410051C9.59196 0.672602 9.75 1.0287 9.75 1.4H3C2.60218 1.4 2.22064 1.5475 1.93934 1.81005C1.65804 2.0726 1.5 2.4287 1.5 2.8V11.2C1.10218 11.2 0.720644 11.0525 0.43934 10.79C0.158035 10.5274 0 10.1713 0 9.8V1.4C0 1.0287 0.158035 0.672602 0.43934 0.410051C0.720644 0.1475 1.10218 0 1.5 0L8.25 0Z" fill="#9295AC"/>
<path d="M12 3.5C12 3.1287 11.842 2.7726 11.5607 2.51005C11.2794 2.2475 10.8978 2.1 10.5 2.1H3.75C3.35218 2.1 2.97064 2.2475 2.68934 2.51005C2.40804 2.7726 2.25 3.1287 2.25 3.5V12.6C2.25 12.9713 2.40804 13.3274 2.68934 13.5899C2.97064 13.8525 3.35218 14 3.75 14H10.5C10.8978 14 11.2794 13.8525 11.5607 13.5899C11.842 13.3274 12 12.9713 12 12.6V3.5ZM6.75 7H3.75V3.5H6.75V7ZM10.5 4.2H7.5V3.5H10.5V4.2ZM10.5 5.6H7.5V4.9H10.5V5.6ZM10.5 7H7.5V6.3H10.5V7ZM10.5 8.4H3.75V7.7H10.5V8.4ZM10.5 9.8H3.75V9.1H10.5V9.8ZM10.5 11.2H3.75V10.5H10.5V11.2Z" fill="#9295AC"/>
</svg>
