<svg width="10" height="10" viewBox="0 0 10 10" fill="none" xmlns="http://www.w3.org/2000/svg">
<path d="M5 10C4.87945 10 4.76383 9.95211 4.67859 9.86687C4.59334 9.78162 4.54545 9.66601 4.54545 9.54545V8.18182H2.72727C2.48617 8.18182 2.25494 8.08604 2.08445 7.91555C1.91396 7.74506 1.81818 7.51383 1.81818 7.27273V2.72727C1.81818 2.48617 1.91396 2.25494 2.08445 2.08445C2.25494 1.91396 2.48617 1.81818 2.72727 1.81818H9.09091C9.33202 1.81818 9.56325 1.91396 9.73373 2.08445C9.90422 2.25494 10 2.48617 10 2.72727V7.27273C10 7.51383 9.90422 7.74506 9.73373 7.91555C9.56325 8.08604 9.33202 8.18182 9.09091 8.18182H7.22727L5.54545 9.86818C5.45455 9.95455 5.34091 10 5.22727 10H5ZM5.45455 7.27273V8.67273L6.85455 7.27273H9.09091V2.72727H2.72727V7.27273H5.45455ZM0.909091 6.36364H0V0.909091C0 0.667985 0.095779 0.436754 0.266267 0.266267C0.436754 0.095779 0.667985 0 0.909091 0H8.18182V0.909091H0.909091V6.36364Z" fill="#9295AC"/>
</svg>
