<svg width="12" height="10" viewBox="0 0 12 10" fill="none" xmlns="http://www.w3.org/2000/svg">
<path d="M6.22991 7C7.17452 7 7.94028 6.10457 7.94028 5C7.94028 3.89543 7.17452 3 6.22991 3C5.28529 3 4.51953 3.89543 4.51953 5C4.51953 6.10457 5.28529 7 6.22991 7Z" stroke="#9295AC"/>
<path d="M10.8987 4.28933C11.1199 4.604 11.2305 4.76067 11.2305 5C11.2305 5.23933 11.1199 5.396 10.8987 5.71067C10.0891 6.86 8.30344 9 6.23047 9C4.15749 9 2.37186 6.86 1.56228 5.71067C1.34107 5.396 1.23047 5.23933 1.23047 5C1.23047 4.76067 1.34107 4.604 1.56228 4.28933C2.37186 3.14 4.15749 1 6.23047 1C8.30344 1 10.0891 3.14 10.8987 4.28933Z" stroke="#9295AC"/>
</svg>
