<svg width="12" height="12" viewBox="0 0 12 12" fill="none" xmlns="http://www.w3.org/2000/svg">
<path d="M2.1936 11.8384C2.10745 11.9206 2.00172 11.9742 1.88882 11.9927C1.77592 12.0113 1.66054 11.9941 1.55621 11.9432C1.45189 11.8924 1.36296 11.8099 1.29987 11.7055C1.23677 11.6011 1.20212 11.4791 1.2 11.3538V9.87687C0.88174 9.87687 0.576516 9.73813 0.351472 9.49116C0.126428 9.24419 0 8.90923 0 8.55996V3.95075C0 3.60148 0.126428 3.26652 0.351472 3.01955C0.576516 2.77258 0.88174 2.63383 1.2 2.63383H7.8C8.11826 2.63383 8.42348 2.77258 8.64853 3.01955C8.87357 3.26652 9 3.60148 9 3.95075V8.55996C9 8.90923 8.87357 9.24419 8.64853 9.49116C8.42348 9.73813 8.11826 9.87687 7.8 9.87687H4.8018L2.1936 11.8384ZM9.6 6.59578C9.59809 6.67675 9.59809 6.75777 9.6 6.83875V6.59578ZM9.6 6.59578C9.603 6.52532 9.6036 5.64299 9.6024 3.94943C9.60192 3.42587 9.41207 2.92394 9.07456 2.55391C8.73704 2.18388 8.27948 1.97603 7.8024 1.97603H3V1.31692C3 0.967649 3.12643 0.632686 3.35147 0.385716C3.57652 0.138746 3.88174 0 4.2 0L10.8 0C11.1183 0 11.4235 0.138746 11.6485 0.385716C11.8736 0.632686 12 0.967649 12 1.31692V5.92612C12 6.27539 11.8736 6.61035 11.6485 6.85732C11.4235 7.10429 11.1183 7.24304 10.8 7.24304V8.71996C10.7979 8.84523 10.7632 8.96722 10.7001 9.07163C10.637 9.17604 10.5481 9.25853 10.4438 9.30941C10.3395 9.3603 10.2241 9.37746 10.1112 9.35889C9.99828 9.34033 9.89255 9.2868 9.8064 9.20459L9.6 9.04919V6.59578Z" fill="#9295AC"/>
</svg>
