<svg width="13" height="12" viewBox="0 0 13 12" fill="none" xmlns="http://www.w3.org/2000/svg">
<path d="M1.3 12C0.9425 12 0.636567 11.8764 0.3822 11.6293C0.127833 11.3821 0.000433333 11.0846 0 10.7368V3.78947C0 3.4421 0.1274 3.14484 0.3822 2.89768C0.637 2.65053 0.942933 2.52674 1.3 2.52632H3.9V1.26316C3.9 0.915789 4.0274 0.618526 4.2822 0.371368C4.537 0.124211 4.84293 0.000421053 5.2 0H7.8C8.1575 0 8.46365 0.12379 8.71845 0.371368C8.97325 0.618947 9.10043 0.91621 9.1 1.26316V2.52632H11.7C12.0575 2.52632 12.3636 2.6501 12.6184 2.89768C12.8732 3.14526 13.0004 3.44253 13 3.78947V10.7368C13 11.0842 12.8728 11.3817 12.6184 11.6293C12.3641 11.8768 12.0579 12.0004 11.7 12H1.3ZM5.2 2.52632H7.8V1.26316H5.2V2.52632Z" fill="#9295AC"/>
</svg>
