<svg width="13" height="12" viewBox="0 0 13 12" fill="none" xmlns="http://www.w3.org/2000/svg">
<path d="M4.72593 1.89474C5.35262 1.89474 5.95365 2.1609 6.3968 2.63468C6.83994 3.10845 7.08889 3.75103 7.08889 4.42105C7.08889 5.09107 6.83994 5.73365 6.3968 6.20743C5.95365 6.6812 5.35262 6.94737 4.72593 6.94737C4.09923 6.94737 3.4982 6.6812 3.05506 6.20743C2.61192 5.73365 2.36296 5.09107 2.36296 4.42105C2.36296 3.75103 2.61192 3.10845 3.05506 2.63468C3.4982 2.1609 4.09923 1.89474 4.72593 1.89474ZM4.72593 8.21053C6.30321 8.21053 9.45186 9.05684 9.45186 10.7368V12H0V10.7368C0 9.05684 3.14865 8.21053 4.72593 8.21053ZM9.31008 2.12211C10.5034 3.51158 10.5034 5.43789 9.31008 6.71368L8.31763 5.64632C8.81386 4.90105 8.81386 3.93474 8.31763 3.18947L9.31008 2.12211ZM11.2654 0C13.587 2.55789 13.5693 6.38526 11.2654 8.8421L10.3025 7.81263C11.9389 5.80421 11.9389 2.93684 10.3025 1.02947L11.2654 0Z" fill="#9295AC"/>
</svg>
