<svg width="13" height="12" viewBox="0 0 13 12" fill="none" xmlns="http://www.w3.org/2000/svg">
<path d="M9.1 10.4V12H0V10.4C0 10.4 0 7.20002 4.55 7.20002C9.1 7.20002 9.1 10.4 9.1 10.4ZM6.825 2.80003C6.825 2.24625 6.69157 1.7049 6.44159 1.24444C6.19161 0.783985 5.83631 0.425103 5.4206 0.213179C5.0049 0.00125413 4.54748 -0.054195 4.10617 0.0538432C3.66486 0.161881 3.2595 0.428555 2.94133 0.82014C2.62317 1.21173 2.40649 1.71064 2.31871 2.25378C2.23093 2.79693 2.27598 3.35991 2.44817 3.87154C2.62036 4.38317 2.91196 4.82047 3.28608 5.12814C3.6602 5.43581 4.10005 5.60002 4.55 5.60002C5.15337 5.60002 5.73202 5.30502 6.15867 4.77992C6.58531 4.25482 6.825 3.54264 6.825 2.80003ZM9.061 7.20002C9.46059 7.58061 9.78755 8.06436 10.0189 8.61722C10.2502 9.17008 10.3803 9.77861 10.4 10.4V12H13V10.4C13 10.4 13 7.49602 9.061 7.20002ZM8.45 4.20631e-05C8.0026 -0.0030241 7.56503 0.161606 7.1955 0.472041C7.59034 1.15103 7.80264 1.96506 7.80264 2.80003C7.80264 3.635 7.59034 4.44904 7.1955 5.12802C7.56503 5.43846 8.0026 5.60309 8.45 5.60002C9.05337 5.60002 9.63202 5.30502 10.0587 4.77992C10.4853 4.25482 10.725 3.54264 10.725 2.80003C10.725 2.05743 10.4853 1.34524 10.0587 0.82014C9.63202 0.29504 9.05337 4.20631e-05 8.45 4.20631e-05Z" fill="#9295AC"/>
</svg>
