<svg width="79" height="75" viewBox="0 0 79 75" fill="none" xmlns="http://www.w3.org/2000/svg">
<rect x="0.632568" y="0.5" width="77.1565" height="74" rx="19.5" fill="white" stroke="#999CB4"/>
<path d="M39.0001 20L64 35.0098V44.9863L39.0001 60L14 44.9863V35.0099L39.0001 20Z" fill="#A5B4FC"/>
<path fill-rule="evenodd" clip-rule="evenodd" d="M14 35.0098L39 20L64 35.0098V44.9863L39 60L14 44.9863V35.0098ZM39 53.631L58.6967 41.8022V38.1951L58.6957 38.1945L39 50.0197L19.3043 38.1945L19.3033 38.1951V41.8022L39 53.631ZM39 44.5046L54.1018 35.4376L50.4229 33.2298L39 40.0881L27.5771 33.2298L23.8982 35.4376L39 44.5046ZM39 34.573L45.829 30.4729L39 26.3747L32.171 30.4729L39 34.573Z" fill="#4F46E5"/>
<path d="M39.0001 20L14 35.0099V44.9863L39 60L39.0001 20Z" fill="#A5B4FC" fill-opacity="0.3"/>
</svg>
