<svg width="107" height="102" viewBox="0 0 107 102" fill="none" xmlns="http://www.w3.org/2000/svg">
<rect width="107" height="102" rx="40" fill="#19181E"/>
<path d="M73.0688 64.1429C72.3371 64.1462 71.6155 64.3147 70.9579 64.6357L63.8941 57.5714H58.2841V60.8571H62.5322L68.6351 66.9604C68.3138 67.618 68.1448 68.3395 68.1406 69.0714C68.1406 70.0462 68.4296 70.9991 68.9711 71.8096C69.5127 72.6201 70.2824 73.2518 71.1829 73.6248C72.0834 73.9979 73.0743 74.0955 74.0303 73.9053C74.9863 73.7151 75.8644 73.2457 76.5537 72.5565C77.2429 71.8672 77.7123 70.989 77.9024 70.0329C78.0926 69.0769 77.995 68.0859 77.622 67.1853C77.249 66.2848 76.6173 65.515 75.8068 64.9735C74.9964 64.4319 74.0436 64.1429 73.0688 64.1429ZM73.0688 70.7143C72.7439 70.7143 72.4263 70.6179 72.1562 70.4374C71.886 70.2569 71.6755 70.0003 71.5511 69.7001C71.4268 69.3999 71.3943 69.0696 71.4577 68.7509C71.521 68.4322 71.6775 68.1395 71.9072 67.9098C72.137 67.68 72.4297 67.5235 72.7484 67.4601C73.067 67.3967 73.3973 67.4293 73.6975 67.5536C73.9977 67.678 74.2542 67.8885 74.4348 68.1587C74.6153 68.4289 74.7116 68.7465 74.7116 69.0714C74.7116 69.5071 74.5385 69.925 74.2305 70.2331C73.9224 70.5412 73.5045 70.7143 73.0688 70.7143ZM73.0688 46.0714C72.0529 46.0744 71.0628 46.3919 70.2345 46.9802C69.4062 47.5685 68.7804 48.3988 68.4429 49.3571H58.2841V52.6429H68.4429C68.7455 53.4925 69.2758 54.2426 69.9759 54.8112C70.676 55.3798 71.5189 55.745 72.4125 55.867C73.3061 55.9889 74.216 55.8628 75.0428 55.5026C75.8697 55.1423 76.5815 54.5617 77.1007 53.8242C77.6199 53.0867 77.9264 52.2207 77.9867 51.3207C78.047 50.4208 77.8588 49.5216 77.4426 48.7215C77.0265 47.9213 76.3984 47.2509 75.6271 46.7835C74.8557 46.3162 73.9707 46.0698 73.0688 46.0714ZM73.0688 52.6429C72.7439 52.6429 72.4263 52.5465 72.1562 52.366C71.886 52.1855 71.6755 51.9289 71.5511 51.6287C71.4268 51.3285 71.3943 50.9982 71.4577 50.6795C71.521 50.3608 71.6775 50.0681 71.9072 49.8383C72.137 49.6086 72.4297 49.4521 72.7484 49.3887C73.067 49.3253 73.3973 49.3579 73.6975 49.4822C73.9977 49.6065 74.2542 49.8171 74.4348 50.0873C74.6153 50.3574 74.7116 50.6751 74.7116 51C74.7116 51.4357 74.5385 51.8536 74.2305 52.1617C73.9224 52.4698 73.5045 52.6429 73.0688 52.6429ZM73.0688 28C71.7622 28.0013 70.5094 28.521 69.5855 29.445C68.6615 30.369 68.1419 31.6218 68.1406 32.9286C68.1462 33.7156 68.3423 34.4895 68.7123 35.1842L62.5486 41.1429H58.2841V44.4286H63.876L71.1041 37.4431C71.7756 37.736 72.5038 37.8753 73.2359 37.8512C73.9681 37.827 74.6856 37.6399 75.3362 37.3034C75.9869 36.9669 76.5543 36.4896 76.9973 35.9061C77.4402 35.3227 77.7475 34.6478 77.8967 33.9306C78.0459 33.2134 78.0333 32.472 77.8599 31.7602C77.6864 31.0485 77.3564 30.3844 76.894 29.8163C76.4315 29.2483 75.8482 28.7904 75.1865 28.4762C74.5248 28.162 73.8014 27.9993 73.0688 28ZM73.0688 34.5714C72.7439 34.5714 72.4263 34.4751 72.1562 34.2946C71.886 34.114 71.6755 33.8575 71.5511 33.5573C71.4268 33.2571 71.3943 32.9268 71.4577 32.6081C71.521 32.2894 71.6775 31.9967 71.9072 31.7669C72.137 31.5371 72.4297 31.3807 72.7484 31.3173C73.067 31.2539 73.3973 31.2864 73.6975 31.4108C73.9977 31.5351 74.2542 31.7457 74.4348 32.0159C74.6153 32.286 74.7116 32.6036 74.7116 32.9286C74.7116 33.3643 74.5385 33.7822 74.2305 34.0902C73.9224 34.3983 73.5045 34.5714 73.0688 34.5714Z" fill="white"/>
<path d="M58.2841 34.5715H61.5696V31.2858H58.2841C57.3479 31.2889 56.4233 31.4932 55.573 31.885C54.7227 32.2767 53.9666 32.8466 53.3558 33.5562C52.745 32.8466 51.9889 32.2767 51.1386 31.885C50.2883 31.4932 49.3637 31.2889 48.4275 31.2858H46.7848C42.865 31.2901 39.1069 32.8493 36.3352 35.6212C33.5634 38.3931 32.0043 42.1514 32 46.0715V55.9286C32.0043 59.8487 33.5634 63.607 36.3352 66.3789C39.1069 69.1508 42.865 70.71 46.7848 70.7143H48.4275C49.3637 70.7112 50.2883 70.5069 51.1386 70.1151C51.9889 69.7234 52.745 69.1535 53.3558 68.4439C53.9666 69.1535 54.7227 69.7234 55.573 70.1151C56.4233 70.5069 57.3479 70.7112 58.2841 70.7143H61.5696V67.4286H58.2841C57.413 67.4278 56.5778 67.0813 55.9618 66.4653C55.3459 65.8493 54.9994 65.0141 54.9986 64.1429V37.8572C54.9994 36.986 55.3459 36.1508 55.9618 35.5348C56.5778 34.9188 57.413 34.5724 58.2841 34.5715ZM48.4275 67.4286H46.7848C44.0224 67.4237 41.354 66.4251 39.2669 64.6154C37.1797 62.8057 35.8132 60.3055 35.4169 57.5715H38.571V54.2858H35.2855V47.7143H40.2138C41.5204 47.713 42.7732 47.1934 43.6971 46.2694C44.6211 45.3453 45.1407 44.0925 45.142 42.7858V39.5001H41.8565V42.7858C41.8565 43.2215 41.6835 43.6393 41.3754 43.9474C41.0673 44.2555 40.6495 44.4286 40.2138 44.4286H35.4169C35.8132 41.6946 37.1797 39.1944 39.2669 37.3847C41.354 35.575 44.0224 34.5764 46.7848 34.5715H48.4275C49.2987 34.5724 50.1338 34.9188 50.7498 35.5348C51.3658 36.1508 51.7122 36.986 51.7131 37.8572V44.4286H48.4275V47.7143H51.7131V54.2858H48.4275C47.1209 54.2871 45.8681 54.8067 44.9442 55.7308C44.0202 56.6548 43.5006 57.9076 43.4993 59.2143V62.5001H46.7848V59.2143C46.7848 58.7786 46.9579 58.3608 47.2659 58.0527C47.574 57.7446 47.9919 57.5715 48.4275 57.5715H51.7131V64.1429C51.7122 65.0141 51.3658 65.8493 50.7498 66.4653C50.1338 67.0813 49.2987 67.4278 48.4275 67.4286Z" fill="white"/>
</svg>
