<svg width="107" height="102" viewBox="0 0 107 102" fill="none" xmlns="http://www.w3.org/2000/svg">
<rect width="107" height="102" rx="40" fill="#19181E"/>
<g clip-path="url(#clip0_148_978)">
<path d="M64.9722 28.3334H42.0278C41.1585 28.3334 40.3247 28.667 39.71 29.2609C39.0953 29.8547 38.75 30.6602 38.75 31.5V69.5C38.75 70.3399 39.0953 71.1453 39.71 71.7392C40.3247 72.3331 41.1585 72.6667 42.0278 72.6667H64.9722C65.8415 72.6667 66.6753 72.3331 67.29 71.7392C67.9047 71.1453 68.25 70.3399 68.25 69.5V31.5C68.25 30.6602 67.9047 29.8547 67.29 29.2609C66.6753 28.667 65.8415 28.3334 64.9722 28.3334ZM42.0278 31.5H64.9722V60H42.0278V31.5ZM42.0278 69.5V63.1667H64.9722V69.5H42.0278Z" fill="#F8F8F8"/>
<path d="M51.8611 64.75H55.1389V67.9167H51.8611V64.75Z" fill="#F8F8F8"/>
</g>
<defs>
<clipPath id="clip0_148_978">
<rect width="59" height="57" fill="white" transform="translate(24 22)"/>
</clipPath>
</defs>
</svg>
