<svg width="94" height="108" viewBox="0 0 94 108" fill="none" xmlns="http://www.w3.org/2000/svg">
<path fill-rule="evenodd" clip-rule="evenodd" d="M86.5716 76.2754C89.2453 74.94 91.388 72.3732 92.5283 69.1397C93.6686 65.9063 93.7132 62.2709 92.6522 59.0335L86.6513 40.7234C84.4509 34.0097 78.1142 30.7825 72.5695 33.5519L57.4478 41.1046C55.8563 36.2485 55.9231 30.7955 57.6336 25.9453C59.3441 21.0951 62.5581 17.2449 66.5686 15.2418L71.6092 12.7242C72.9461 12.0565 74.0174 10.7731 74.5876 9.15636C75.1577 7.53962 75.18 5.72196 74.6495 4.10325C74.119 2.48453 73.0791 1.19736 71.7587 0.524897C70.4383 -0.147565 68.9455 -0.150234 67.6086 0.517473L62.568 3.03506C55.8838 6.3736 50.5271 12.7905 47.6763 20.8743C44.8255 28.958 44.7141 38.0463 47.3667 46.1398L57.3682 76.6566C58.4292 79.8941 60.5089 82.4684 63.1497 83.8133C65.7905 85.1583 68.7762 85.1636 71.4499 83.8282L86.5716 76.2754ZM41.2065 98.9337C43.8801 97.5983 46.0228 95.0315 47.1632 91.7981C48.3035 88.5646 48.348 84.9293 47.287 81.6918L41.2861 63.3817C39.0858 56.668 32.749 53.4408 27.2044 56.2102L12.0826 63.763C10.4911 58.9068 10.5579 53.4539 12.2684 48.6036C13.9789 43.7534 17.1929 39.9032 21.2035 37.9001L26.244 35.3825C27.5809 34.7148 28.6522 33.4314 29.2224 31.8147C29.7926 30.1979 29.8148 28.3803 29.2843 26.7616C28.7538 25.1429 27.714 23.8557 26.3935 23.1832C25.0731 22.5108 23.5803 22.5081 22.2434 23.1758L17.2029 25.6934C10.5187 29.0319 5.16193 35.4489 2.31112 43.5326C-0.539689 51.6163 -0.651068 60.7046 2.00149 68.7982L12.003 99.315C13.064 102.552 15.1437 105.127 17.7845 106.472C20.4254 107.817 23.411 107.822 26.0847 106.487L41.2065 98.9337Z" fill="#1E1B24"/>
</svg>
