<svg width="107" height="102" viewBox="0 0 107 102" fill="none" xmlns="http://www.w3.org/2000/svg">
<rect width="107" height="102" rx="40" fill="#19181E"/>
<path d="M38.8889 29.8606H69.1111C69.6121 29.8606 70.0925 30.0852 70.4468 30.4851C70.801 30.885 71 31.4274 71 31.9929V40.5222C71 41.0877 70.801 41.63 70.4468 42.0299C70.0925 42.4298 69.6121 42.6545 69.1111 42.6545H38.8889C38.3879 42.6545 37.9075 42.4298 37.5532 42.0299C37.199 41.63 37 41.0877 37 40.5222V31.9929C37 31.4274 37.199 30.885 37.5532 30.4851C37.9075 30.0852 38.3879 29.8606 38.8889 29.8606ZM38.8889 46.9191H69.1111C69.6121 46.9191 70.0925 47.1437 70.4468 47.5436C70.801 47.9435 71 48.4859 71 49.0514V57.5806C71 58.1462 70.801 58.6885 70.4468 59.0884C70.0925 59.4883 69.6121 59.713 69.1111 59.713H38.8889C38.3879 59.713 37.9075 59.4883 37.5532 59.0884C37.199 58.6885 37 58.1462 37 57.5806V49.0514C37 48.4859 37.199 47.9435 37.5532 47.5436C37.9075 47.1437 38.3879 46.9191 38.8889 46.9191ZM38.8889 63.9776H69.1111C69.6121 63.9776 70.0925 64.2022 70.4468 64.6021C70.801 65.002 71 65.5444 71 66.1099V74.6391C71 75.2047 70.801 75.747 70.4468 76.1469C70.0925 76.5468 69.6121 76.7714 69.1111 76.7714H38.8889C38.3879 76.7714 37.9075 76.5468 37.5532 76.1469C37.199 75.747 37 75.2047 37 74.6391V66.1099C37 65.5444 37.199 65.002 37.5532 64.6021C37.9075 64.2022 38.3879 63.9776 38.8889 63.9776ZM48.3333 38.3898H50.2222V34.1252H48.3333V38.3898ZM48.3333 55.4483H50.2222V51.1837H48.3333V55.4483ZM48.3333 72.5068H50.2222V68.2422H48.3333V72.5068ZM40.7778 34.1252V38.3898H44.5556V34.1252H40.7778ZM40.7778 51.1837V55.4483H44.5556V51.1837H40.7778ZM40.7778 68.2422V72.5068H44.5556V68.2422H40.7778Z" fill="#F8F8F8"/>
</svg>
