<svg width="180" height="182" viewBox="0 0 180 182" fill="red" xmlns="http://www.w3.org/2000/svg">
<path d="M87.5982 2.15726C87.9361 -0.719087 92.064 -0.719087 92.4018 2.15726L95.2334 26.2872C98.8899 57.4455 123.186 82.0114 154.001 85.7084L177.866 88.5715C180.711 88.9131 180.711 93.0869 177.866 93.4285L154.001 96.2916C123.186 99.9886 98.8899 124.555 95.2334 155.713L92.4018 179.842C92.064 182.719 87.9361 182.719 87.5982 179.842L84.7666 155.713C81.1101 124.555 56.8142 99.9886 25.9983 96.2916L2.13355 93.4285C-0.711185 93.0869 -0.711185 88.9131 2.13355 88.5715L25.9983 85.7084C56.8142 82.0114 81.1101 57.4455 84.7666 26.2872L87.5982 2.15726Z" fill="#1E1B24"/>
</svg>
