<svg width="107" height="102" viewBox="0 0 107 102" fill="none" xmlns="http://www.w3.org/2000/svg">
<rect width="107" height="102" rx="40" fill="#19181E"/>
<path d="M31.2983 41.5455H34.9886V52.8807C34.9886 54.1534 34.6847 55.267 34.0767 56.2216C33.4744 57.1761 32.6307 57.9205 31.5455 58.4545C30.4602 58.983 29.196 59.2472 27.7528 59.2472C26.304 59.2472 25.0369 58.983 23.9517 58.4545C22.8665 57.9205 22.0227 57.1761 21.4205 56.2216C20.8182 55.267 20.517 54.1534 20.517 52.8807V41.5455H24.2074V52.5653C24.2074 53.2301 24.3523 53.821 24.642 54.3381C24.9375 54.8551 25.3523 55.2614 25.8864 55.5568C26.4205 55.8523 27.0426 56 27.7528 56C28.4688 56 29.0909 55.8523 29.6193 55.5568C30.1534 55.2614 30.5653 54.8551 30.8551 54.3381C31.1506 53.821 31.2983 53.2301 31.2983 52.5653V41.5455ZM41.7152 41.5455V59H38.0249V41.5455H41.7152ZM52.2855 40.7273L46.6605 61.625H43.5327L49.1577 40.7273H52.2855ZM64.8842 41.5455H68.5746V52.8807C68.5746 54.1534 68.2706 55.267 67.6626 56.2216C67.0604 57.1761 66.2166 57.9205 65.1314 58.4545C64.0462 58.983 62.782 59.2472 61.3388 59.2472C59.8899 59.2472 58.6229 58.983 57.5376 58.4545C56.4524 57.9205 55.6087 57.1761 55.0064 56.2216C54.4041 55.267 54.103 54.1534 54.103 52.8807V41.5455H57.7933V52.5653C57.7933 53.2301 57.9382 53.821 58.228 54.3381C58.5234 54.8551 58.9382 55.2614 59.4723 55.5568C60.0064 55.8523 60.6286 56 61.3388 56C62.0547 56 62.6768 55.8523 63.2053 55.5568C63.7393 55.2614 64.1513 54.8551 64.4411 54.3381C64.7365 53.821 64.8842 53.2301 64.8842 52.5653V41.5455ZM75.071 41.5455L78.5909 47.4943H78.7273L82.2642 41.5455H86.4318L81.1051 50.2727L86.5511 59H82.3068L78.7273 53.0426H78.5909L75.0114 59H70.7841L76.2472 50.2727L70.8864 41.5455H75.071Z" fill="white"/>
</svg>
